<svg
            width="21"
            height="20"
            viewBox="0 0 26 33"
            fill="none"
            xmlns="http://www.w3.org/2000/svg"
          >
            <path
              d="M5.14286 31.5505H2.85714V32.6934H5.14286V31.5505Z"
              fill="#232329"
            />
            <path
              d="M22.2857 31.5505H20V32.6934H22.2857V31.5505Z"
              fill="#232329"
            />
            <path
              d="M8 26.4076C8.31559 26.4076 8.57143 26.1518 8.57143 25.8362C8.57143 25.5206 8.31559 25.2648 8 25.2648C7.68441 25.2648 7.42857 25.5206 7.42857 25.8362C7.42857 26.1518 7.68441 26.4076 8 26.4076Z"
              fill="#232329"
            />
            <path
              d="M25.1429 0.693359H0V30.4076H25.1429V0.693359ZM2.85714 21.8362C2.85714 21.9878 2.79694 22.1331 2.68978 22.2403C2.58261 22.3474 2.43727 22.4076 2.28571 22.4076C2.13416 22.4076 1.98882 22.3474 1.88165 22.2403C1.77449 22.1331 1.71429 21.9878 1.71429 21.8362V9.26479C1.71429 9.11324 1.77449 8.96789 1.88165 8.86073C1.98882 8.75356 2.13416 8.69336 2.28571 8.69336C2.43727 8.69336 2.58261 8.75356 2.68978 8.86073C2.79694 8.96789 2.85714 9.11324 2.85714 9.26479V21.8362ZM23.4286 28.1219C23.4286 28.2735 23.3684 28.4188 23.2612 28.526C23.154 28.6332 23.0087 28.6934 22.8571 28.6934H4.57143C4.41988 28.6934 4.27453 28.6332 4.16737 28.526C4.0602 28.4188 4 28.2735 4 28.1219V2.97907C4 2.82752 4.0602 2.68218 4.16737 2.57501C4.27453 2.46785 4.41988 2.40765 4.57143 2.40765H22.8571C23.0087 2.40765 23.154 2.46785 23.2612 2.57501C23.3684 2.68218 23.4286 2.82752 23.4286 2.97907V28.1219Z"
              fill="#232329"
            />
            <path
              d="M5.14286 14.9791H8C7.66095 14.9791 7.32951 14.8785 7.0476 14.6902C6.76568 14.5018 6.54596 14.2341 6.41621 13.9208C6.28646 13.6076 6.25251 13.2629 6.31866 12.9303C6.3848 12.5978 6.54807 12.2924 6.78782 12.0526C7.02757 11.8129 7.33302 11.6496 7.66556 11.5834C7.9981 11.5173 8.34279 11.5512 8.65603 11.681C8.96928 11.8107 9.23701 12.0305 9.42538 12.3124C9.61375 12.5943 9.71429 12.9257 9.71429 13.2648C9.71378 13.7193 9.533 14.155 9.21162 14.4764C8.89024 14.7978 8.4545 14.9786 8 14.9791H13.7143C13.3752 14.9791 13.0438 14.8785 12.7619 14.6902C12.48 14.5018 12.2602 14.2341 12.1305 13.9208C12.0007 13.6076 11.9668 13.2629 12.0329 12.9303C12.0991 12.5978 12.2624 12.2924 12.5021 12.0526C12.7419 11.8129 13.0473 11.6496 13.3798 11.5834C13.7124 11.5173 14.0571 11.5512 14.3703 11.681C14.6836 11.8107 14.9513 12.0305 15.1397 12.3124C15.328 12.5943 15.4286 12.9257 15.4286 13.2648C15.4281 13.7193 15.2473 14.155 14.9259 14.4764C14.6045 14.7978 14.1688 14.9786 13.7143 14.9791H19.4286C19.0895 14.9791 18.7581 14.8785 18.4762 14.6902C18.1943 14.5018 17.9745 14.2341 17.8448 13.9208C17.715 13.6076 17.6811 13.2629 17.7472 12.9303C17.8134 12.5978 17.9766 12.2924 18.2164 12.0526C18.4561 11.8129 18.7616 11.6496 19.0941 11.5834C19.4267 11.5173 19.7714 11.5512 20.0846 11.681C20.3978 11.8107 20.6656 12.0305 20.854 12.3124C21.0423 12.5943 21.1429 12.9257 21.1429 13.2648C21.1424 13.7193 20.9616 14.155 20.6402 14.4764C20.3188 14.7978 19.8831 14.9786 19.4286 14.9791H22.2857V9.83622H5.14286V14.9791Z"
              fill="#232329"
            />
            <path
              d="M13.7143 7.5505C14.0299 7.5505 14.2857 7.29467 14.2857 6.97907C14.2857 6.66348 14.0299 6.40765 13.7143 6.40765C13.3987 6.40765 13.1429 6.66348 13.1429 6.97907C13.1429 7.29467 13.3987 7.5505 13.7143 7.5505Z"
              fill="#232329"
            />
            <path
              d="M19.4286 13.8362C19.7442 13.8362 20 13.5804 20 13.2648C20 12.9492 19.7442 12.6934 19.4286 12.6934C19.113 12.6934 18.8571 12.9492 18.8571 13.2648C18.8571 13.5804 19.113 13.8362 19.4286 13.8362Z"
              fill="#232329"
            />
            <path
              d="M8 7.5505C8.31559 7.5505 8.57143 7.29467 8.57143 6.97907C8.57143 6.66348 8.31559 6.40765 8 6.40765C7.68441 6.40765 7.42857 6.66348 7.42857 6.97907C7.42857 7.29467 7.68441 7.5505 8 7.5505Z"
              fill="#232329"
            />
            <path
              d="M19.4286 7.5505C19.7442 7.5505 20 7.29467 20 6.97907C20 6.66348 19.7442 6.40765 19.4286 6.40765C19.113 6.40765 18.8571 6.66348 18.8571 6.97907C18.8571 7.29467 19.113 7.5505 19.4286 7.5505Z"
              fill="#232329"
            />
            <path
              d="M5.14286 8.69336H8C7.66095 8.69336 7.32951 8.59282 7.0476 8.40445C6.76568 8.21608 6.54596 7.94835 6.41621 7.6351C6.28646 7.32186 6.25251 6.97717 6.31866 6.64463C6.3848 6.31209 6.54807 6.00664 6.78782 5.76689C7.02757 5.52714 7.33302 5.36387 7.66556 5.29773C7.9981 5.23158 8.34279 5.26553 8.65603 5.39528C8.96928 5.52503 9.23701 5.74475 9.42538 6.02667C9.61375 6.30858 9.71429 6.64002 9.71429 6.97907C9.71378 7.43357 9.533 7.86931 9.21162 8.19069C8.89024 8.51207 8.4545 8.69285 8 8.69336H13.7143C13.3752 8.69336 13.0438 8.59282 12.7619 8.40445C12.48 8.21608 12.2602 7.94835 12.1305 7.6351C12.0007 7.32186 11.9668 6.97717 12.0329 6.64463C12.0991 6.31209 12.2624 6.00664 12.5021 5.76689C12.7419 5.52714 13.0473 5.36387 13.3798 5.29773C13.7124 5.23158 14.0571 5.26553 14.3703 5.39528C14.6836 5.52503 14.9513 5.74475 15.1397 6.02667C15.328 6.30858 15.4286 6.64002 15.4286 6.97907C15.4281 7.43357 15.2473 7.86931 14.9259 8.19069C14.6045 8.51207 14.1688 8.69285 13.7143 8.69336H19.4286C19.0895 8.69336 18.7581 8.59282 18.4762 8.40445C18.1943 8.21608 17.9745 7.94835 17.8448 7.6351C17.715 7.32186 17.6811 6.97717 17.7472 6.64463C17.8134 6.31209 17.9766 6.00664 18.2164 5.76689C18.4561 5.52714 18.7616 5.36387 19.0941 5.29773C19.4267 5.23158 19.7714 5.26553 20.0846 5.39528C20.3978 5.52503 20.6656 5.74475 20.854 6.02667C21.0423 6.30858 21.1429 6.64002 21.1429 6.97907C21.1424 7.43357 20.9616 7.86931 20.6402 8.19069C20.3188 8.51207 19.8831 8.69285 19.4286 8.69336H22.2857V3.5505H5.14286V8.69336Z"
              fill="#232329"
            />
            <path
              d="M13.7143 13.8362C14.0299 13.8362 14.2857 13.5804 14.2857 13.2648C14.2857 12.9492 14.0299 12.6934 13.7143 12.6934C13.3987 12.6934 13.1429 12.9492 13.1429 13.2648C13.1429 13.5804 13.3987 13.8362 13.7143 13.8362Z"
              fill="#232329"
            />
            <path
              d="M13.7143 26.4076C14.0299 26.4076 14.2857 26.1518 14.2857 25.8362C14.2857 25.5206 14.0299 25.2648 13.7143 25.2648C13.3987 25.2648 13.1429 25.5206 13.1429 25.8362C13.1429 26.1518 13.3987 26.4076 13.7143 26.4076Z"
              fill="#232329"
            />
            <path
              d="M19.4286 26.4076C19.7442 26.4076 20 26.1518 20 25.8362C20 25.5206 19.7442 25.2648 19.4286 25.2648C19.113 25.2648 18.8571 25.5206 18.8571 25.8362C18.8571 26.1518 19.113 26.4076 19.4286 26.4076Z"
              fill="#232329"
            />
            <path
              d="M5.14286 21.2648H8C7.66095 21.2648 7.32951 21.1642 7.0476 20.9759C6.76568 20.7875 6.54596 20.5198 6.41621 20.2065C6.28646 19.8933 6.25251 19.5486 6.31866 19.2161C6.3848 18.8835 6.54807 18.5781 6.78782 18.3383C7.02757 18.0986 7.33302 17.9353 7.66556 17.8692C7.9981 17.803 8.34279 17.837 8.65603 17.9667C8.96928 18.0965 9.23701 18.3162 9.42538 18.5981C9.61375 18.88 9.71429 19.2114 9.71429 19.5505C9.71378 20.005 9.533 20.4407 9.21162 20.7621C8.89024 21.0835 8.4545 21.2643 8 21.2648H13.7143C13.3752 21.2648 13.0438 21.1642 12.7619 20.9759C12.48 20.7875 12.2602 20.5198 12.1305 20.2065C12.0007 19.8933 11.9668 19.5486 12.0329 19.2161C12.0991 18.8835 12.2624 18.5781 12.5021 18.3383C12.7419 18.0986 13.0473 17.9353 13.3798 17.8692C13.7124 17.803 14.0571 17.837 14.3703 17.9667C14.6836 18.0965 14.9513 18.3162 15.1397 18.5981C15.328 18.88 15.4286 19.2114 15.4286 19.5505C15.4281 20.005 15.2473 20.4407 14.9259 20.7621C14.6045 21.0835 14.1688 21.2643 13.7143 21.2648H19.4286C19.0895 21.2648 18.7581 21.1642 18.4762 20.9759C18.1943 20.7875 17.9745 20.5198 17.8448 20.2065C17.715 19.8933 17.6811 19.5486 17.7472 19.2161C17.8134 18.8835 17.9766 18.5781 18.2164 18.3383C18.4561 18.0986 18.7616 17.9353 19.0941 17.8692C19.4267 17.803 19.7714 17.837 20.0846 17.9667C20.3978 18.0965 20.6656 18.3162 20.854 18.5981C21.0423 18.88 21.1429 19.2114 21.1429 19.5505C21.1424 20.005 20.9616 20.4407 20.6402 20.7621C20.3188 21.0835 19.8831 21.2643 19.4286 21.2648H22.2857V16.1219H5.14286V21.2648Z"
              fill="#232329"
            />
            <path
              d="M8 13.8362C8.31559 13.8362 8.57143 13.5804 8.57143 13.2648C8.57143 12.9492 8.31559 12.6934 8 12.6934C7.68441 12.6934 7.42857 12.9492 7.42857 13.2648C7.42857 13.5804 7.68441 13.8362 8 13.8362Z"
              fill="#232329"
            />
            <path
              d="M19.4286 20.1219C19.7442 20.1219 20 19.8661 20 19.5505C20 19.2349 19.7442 18.9791 19.4286 18.9791C19.113 18.9791 18.8571 19.2349 18.8571 19.5505C18.8571 19.8661 19.113 20.1219 19.4286 20.1219Z"
              fill="#232329"
            />
            <path
              d="M8 20.1219C8.31559 20.1219 8.57143 19.8661 8.57143 19.5505C8.57143 19.2349 8.31559 18.9791 8 18.9791C7.68441 18.9791 7.42857 19.2349 7.42857 19.5505C7.42857 19.8661 7.68441 20.1219 8 20.1219Z"
              fill="#232329"
            />
            <path
              d="M5.14286 27.5505H8C7.66095 27.5505 7.32951 27.45 7.0476 27.2616C6.76568 27.0732 6.54596 26.8055 6.41621 26.4922C6.28646 26.179 6.25251 25.8343 6.31866 25.5018C6.3848 25.1692 6.54807 24.8638 6.78782 24.624C7.02757 24.3843 7.33302 24.221 7.66556 24.1549C7.9981 24.0887 8.34279 24.1227 8.65603 24.2524C8.96928 24.3822 9.23701 24.6019 9.42538 24.8838C9.61375 25.1657 9.71429 25.4972 9.71429 25.8362C9.71378 26.2907 9.533 26.7265 9.21162 27.0478C8.89024 27.3692 8.4545 27.55 8 27.5505H13.7143C13.3752 27.5505 13.0438 27.45 12.7619 27.2616C12.48 27.0732 12.2602 26.8055 12.1305 26.4922C12.0007 26.179 11.9668 25.8343 12.0329 25.5018C12.0991 25.1692 12.2624 24.8638 12.5021 24.624C12.7419 24.3843 13.0473 24.221 13.3798 24.1549C13.7124 24.0887 14.0571 24.1227 14.3703 24.2524C14.6836 24.3822 14.9513 24.6019 15.1397 24.8838C15.328 25.1657 15.4286 25.4972 15.4286 25.8362C15.4281 26.2907 15.2473 26.7265 14.9259 27.0478C14.6045 27.3692 14.1688 27.55 13.7143 27.5505H19.4286C19.0895 27.5505 18.7581 27.45 18.4762 27.2616C18.1943 27.0732 17.9745 26.8055 17.8448 26.4922C17.715 26.179 17.6811 25.8343 17.7472 25.5018C17.8134 25.1692 17.9766 24.8638 18.2164 24.624C18.4561 24.3843 18.7616 24.221 19.0941 24.1549C19.4267 24.0887 19.7714 24.1227 20.0846 24.2524C20.3978 24.3822 20.6656 24.6019 20.854 24.8838C21.0423 25.1657 21.1429 25.4972 21.1429 25.8362C21.1424 26.2907 20.9616 26.7265 20.6402 27.0478C20.3188 27.3692 19.8831 27.55 19.4286 27.5505H22.2857V22.4076H5.14286V27.5505Z"
              fill="#232329"
            />
            <path
              d="M13.7143 20.1219C14.0299 20.1219 14.2857 19.8661 14.2857 19.5505C14.2857 19.2349 14.0299 18.9791 13.7143 18.9791C13.3987 18.9791 13.1429 19.2349 13.1429 19.5505C13.1429 19.8661 13.3987 20.1219 13.7143 20.1219Z"
              fill="#232329"
            />
          </svg>